<svg width="24" height="24" viewBox="0 0 24 24" fill="none" xmlns="http://www.w3.org/2000/svg">
<g clip-path="url(#clip0_710_880)">
<path d="M5.54667 14.4184L4.73974 17.4308L1.79044 17.4931C0.909037 15.8583 0.409088 13.9879 0.409088 12.0002C0.409088 10.0782 0.876528 8.26565 1.7051 6.66968H1.70573L4.33143 7.15106L5.48165 9.76101C5.24091 10.4628 5.1097 11.2163 5.1097 12.0002C5.10979 12.8511 5.26391 13.6663 5.54667 14.4184Z" fill="#FBBB00"/>
<path d="M23.3883 9.83447C23.5214 10.5356 23.5908 11.2597 23.5908 11.9998C23.5908 12.8296 23.5036 13.6391 23.3374 14.4199C22.7731 17.0769 21.2988 19.397 19.2564 21.0388L19.2557 21.0382L15.9485 20.8694L15.4804 17.9475C16.8357 17.1527 17.8948 15.9089 18.4527 14.4199H12.2547V9.83447H18.5431H23.3883Z" fill="#518EF8"/>
<path d="M19.2553 21.0386L19.2559 21.0393C17.2696 22.6359 14.7463 23.5912 11.9995 23.5912C7.5854 23.5912 3.74768 21.124 1.78995 17.4932L5.54617 14.4185C6.52502 17.0308 9.04509 18.8905 11.9995 18.8905C13.2694 18.8905 14.4591 18.5472 15.4799 17.9479L19.2553 21.0386Z" fill="#28B446"/>
<path d="M19.3983 3.07762L15.6434 6.15175C14.5868 5.49134 13.3379 5.10984 11.9999 5.10984C8.9786 5.10984 6.41139 7.0548 5.48159 9.76087L1.70562 6.66954H1.70499C3.63406 2.95026 7.52018 0.40918 11.9999 0.40918C14.8123 0.40918 17.3909 1.41098 19.3983 3.07762Z" fill="#F14336"/>
</g>
<defs>
<clipPath id="clip0_710_880">
<rect width="23.1818" height="23.1818" fill="white" transform="translate(0.409088 0.40918)"/>
</clipPath>
</defs>
</svg>
